<?xml version="1.0" encoding="UTF-8"?><svg id="_圖層_1" xmlns="http://www.w3.org/2000/svg" viewBox="0 0 16 16"><defs><style>.cls-1{fill:#fff;}</style></defs><path class="cls-1" d="M7.44,5.87h-.1v-.25h.1s.02,0,.02-.02v-.21s0-.02-.02-.02h-.23c-.07,0-.12-.06-.12-.12,0-.47-.32-.86-.77-.97l.05-.24c.53.12.9.56.96,1.08h.11c.15,0,.27.12.27.27v.21c0,.15-.12.27-.27.27Z"/><path class="cls-1" d="M6.71,5.5h-1.24c-.07,0-.12-.06-.12-.12s.06-.12.12-.12h1.24c.07,0,.12.06.12.12s-.06.12-.12.12Z"/><path class="cls-1" d="M4.86,5.87h-.1c-.15,0-.27-.12-.27-.27v-.21c0-.15.12-.27.27-.27h.11c.05-.53.43-.96.96-1.08l.05.24c-.45.1-.77.5-.77.97,0,.07-.06.12-.12.12h-.23s-.02,0-.02.02v.21s0,.02.02.02h.1v.25Z"/><path class="cls-1" d="M6.47,4.51h-.25v-.37h-.25v.37h-.25v-.5c0-.07.06-.12.12-.12h.5c.07,0,.12.06.12.12v.5Z"/><path class="cls-1" d="M6.09,6.24c-.92,0-1.09-.41-1.11-.45-.02-.06.01-.14.08-.16.06-.02.13.01.16.07,0,.01.14.29.87.29s.87-.29.87-.29c.02-.06.1-.1.16-.07.06.02.1.09.08.15-.01.05-.17.46-1.11.46Z"/><path class="cls-1" d="M4.73,11.44c-.07,0-.12-.06-.12-.12v-.86h-.19c-.07,0-.12-.06-.12-.12s.06-.12.12-.12h.31c.07,0,.12.06.12.12v.99c0,.07-.06.12-.12.12Z"/><path class="cls-1" d="M3.92,11.32h-.25v-1.46c0-1.14.79-1.99,1.84-1.99h1.24c.33,0,.64.08.92.24l-.13.21c-.23-.14-.5-.21-.79-.21h-1.24c-.92,0-1.59.73-1.59,1.74v1.46Z"/><path class="cls-1" d="M6.13,7.5c-.63,0-1.06-.49-1.06-1.21,0-.14.02-.27.05-.39.02-.07.08-.11.15-.09.07.02.11.08.09.15-.03.1-.04.21-.04.33,0,.45.21.97.81.97s.81-.52.81-.97c0-.13-.02-.25-.05-.37-.02-.07.02-.13.08-.15.07-.02.13.02.15.08.04.14.06.28.06.44,0,.73-.42,1.21-1.06,1.21Z"/><rect class="cls-1" x="6" y="9.24" width=".25" height=".31"/><rect class="cls-1" x="6" y="10.17" width=".25" height=".31"/><rect class="cls-1" x="6" y="11.11" width=".25" height=".31"/><path class="cls-1" d="M12.21,11.75c-.07,0-.12-.06-.12-.12,0-.12-.1-.21-.21-.21-.03,0-.06,0-.13.02-.03,0-.07.01-.12.02-.04,0-.07,0-.1-.03-.03-.02-.04-.06-.04-.09v-2.93c0-.06.04-.11.1-.12.05,0,.09-.02.12-.02.08-.01.12-.02.17-.02.25,0,.46.21.46.46v2.93c0,.07-.06.12-.12.12ZM11.87,11.17c.08,0,.15.02.21.05v-2.52c0-.12-.1-.21-.21-.21-.03,0-.06,0-.13.02,0,0-.01,0-.02,0v2.67c.06-.01.1-.02.15-.02Z"/><path class="cls-1" d="M8.15,12.11c-.18,0-.33-.06-.42-.16-.13-.15-.12-.34-.12-.38v-2.49c0-.07.06-.12.12-.12s.12.06.12.12v2.5s0,.01,0,.02c0,0-.01.12.06.2.05.05.13.08.24.08s.96,0,1.82,0c.86,0,1.71,0,1.82,0s.19-.03.24-.08c.07-.08.06-.2.06-.2,0,0,0-.01,0-.02v-2.5c0-.07.06-.12.12-.12s.12.06.12.12v2.49s.01.24-.12.38c-.1.11-.24.16-.42.16-.11,0-.96,0-1.82,0-.86,0-1.71,0-1.82,0Z"/><path class="cls-1" d="M8.34,9.2c-.07,0-.12-.06-.12-.12s.06-.12.12-.12c.22,0,.93,0,1.63,0,.7,0,1.41,0,1.63,0,.07,0,.12.06.12.12s-.06.12-.12.12c-.22,0-.93,0-1.63,0-.7,0-1.41,0-1.63,0Z"/><path class="cls-1" d="M7.73,11.77c-.07,0-.12-.06-.12-.12v-2.93c0-.25.21-.46.46-.46.05,0,.1,0,.17.02.03,0,.07.01.12.02.06.01.1.06.1.12v2.93s-.02.07-.04.09c-.03.02-.07.03-.1.03-.05,0-.09-.02-.12-.02-.07-.01-.1-.02-.13-.02-.12,0-.21.1-.21.21,0,.07-.06.12-.12.12ZM8.07,8.5c-.12,0-.21.1-.21.21v2.52c.06-.03.14-.05.21-.05.05,0,.09,0,.15.02v-2.67s-.01,0-.02,0c-.07-.01-.1-.02-.13-.02Z"/><path class="cls-1" d="M9.99,11.42c-.08,0-.15,0-.22-.03l.06-.24c.1.02.22.03.32,0l.05.24c-.07.01-.14.02-.21.02ZM10.59,11.21l-.15-.2c.09-.07.16-.15.2-.25l.22.11c-.06.13-.16.24-.27.33ZM9.38,11.2c-.11-.09-.2-.21-.27-.34l.22-.11c.05.1.11.18.2.25l-.16.19ZM10.71,10.46h0c0-.12-.02-.22-.07-.32l.22-.11c.06.13.1.27.1.42h-.25ZM9.27,10.44h-.25c0-.15.03-.29.1-.42l.22.11c-.05.1-.07.2-.07.31ZM10.44,9.88c-.08-.07-.18-.12-.29-.14l.06-.24c.14.03.27.1.39.19l-.15.19ZM9.54,9.88l-.15-.19c.11-.09.25-.15.39-.19l.05.24c-.1.02-.2.07-.29.14Z"/></svg>