<?xml version="1.0" encoding="UTF-8"?><svg id="_圖層_1" xmlns="http://www.w3.org/2000/svg" viewBox="0 0 16 16"><defs><style>.cls-1{fill:none;stroke:#fff;stroke-linecap:round;stroke-linejoin:round;stroke-width:.4px;}</style></defs><path class="cls-1" d="M3.71,6.44c0-.11,0-.21,0-.32,0-.88.01-1.76.01-2.64.38.45,1.16.76,2.05.76,1.07,0,1.96-.44,2.23-1.04.26.6,1.16,1.04,2.23,1.04.89,0,1.66-.31,2.05-.76,0,1.24.01,2.47.01,3.71,0,2.41-1.73,4.51-4.29,5.62-.73-.32-1.4-.72-1.98-1.18M5.44,7.93l1.43-1.32.49-1c.11-.22.53-.14.62.08.09.22-.01.82-.13,1.03l-.45.82,1.66-.1c.24-.01.47.16.47.41h0c0,.21-.13.4-.32.46-.03,0-.15.02-.18.02h-.04s.16.1.16.1c.08.05.13.13.13.21h0c.01.19-.1.36-.26.44-.03.01-.17,0-.2.01.02.01.16.04.18.06.08.07.14.18.14.29h0c.01.19-.1.36-.26.44-.03.01-.23.01-.26.02.04.02.24.06.27.09.06.07.1.16.11.26h0c.02.24-.16.47-.41.47l-1.78.04c-.65.01-1.22-.35-1.55-.84M4.08,7.38h.82c.19,0,.34.15.34.34v2.69c0,.19-.15.34-.34.34h-.82c-.19,0-.34-.15-.34-.34v-2.69c0-.19.15-.34.34-.34h0ZM4.5,9.94h.02M11.55,4.88c0,1.02.01,1.32.01,2.34s-.39,2.02-1.08,2.84"/></svg>