<?xml version="1.0" encoding="UTF-8"?><svg id="_圖層_1" xmlns="http://www.w3.org/2000/svg" viewBox="0 0 16 16"><defs><style>.cls-1{fill:#fff;}</style></defs><rect class="cls-1" x="3.19" y="11.89" width="9.63" height=".24"/><path class="cls-1" d="M5.64,12.01h-.24v-6.49h-1.4v6.49h-.24v-6.61c0-.07.05-.12.12-.12h1.64c.07,0,.12.05.12.12v6.61Z"/><path class="cls-1" d="M7.73,12.01h-.24v-5.77l-1.85-.67v6.44h-.24v-6.61s.02-.08.05-.1c.03-.02.07-.03.11-.01l2.08.75s.08.06.08.11v5.86Z"/><rect class="cls-1" x="4.39" y="6.14" width="1.14" height=".24"/><rect class="cls-1" x="4.39" y="7.14" width="1.14" height=".24"/><rect class="cls-1" x="4.39" y="8.15" width="1.14" height=".24"/><rect class="cls-1" x="4.39" y="9.15" width="1.14" height=".24"/><rect class="cls-1" x="4.39" y="10.16" width="1.14" height=".24"/><rect class="cls-1" x="6.45" y="5.53" width=".24" height="2.22" transform="translate(-1.91 10.55) rotate(-70.11)"/><path class="cls-1" d="M7.57,8.13l-2.09-.75s-.08-.06-.08-.11v-.62h.24v.54l2.01.73-.08.22Z"/><rect class="cls-1" x="6.45" y="6.53" width=".24" height="2.22" transform="translate(-2.85 11.22) rotate(-70.11)"/><path class="cls-1" d="M7.57,9.13l-2.09-.75s-.08-.06-.08-.11v-.62h.24v.54l2.01.73-.08.22Z"/><rect class="cls-1" x="6.45" y="7.54" width=".24" height="2.22" transform="translate(-3.8 11.88) rotate(-70.12)"/><rect class="cls-1" x="6.45" y="8.54" width=".24" height="2.22" transform="translate(-4.74 12.54) rotate(-70.11)"/><rect class="cls-1" x="6.45" y="9.55" width=".24" height="2.22" transform="translate(-5.69 13.21) rotate(-70.11)"/><path class="cls-1" d="M5.52,5.52h-.8c-.07,0-.12-.05-.12-.12v-.64c0-.07.05-.12.12-.12h.8c.07,0,.12.05.12.12v.64c0,.07-.05.12-.12.12ZM4.84,5.28h.56v-.4h-.56v.4Z"/><path class="cls-1" d="M6.93,5.84h-.24v-.53l-1.05-.38v.47h-.24v-.64s.02-.08.05-.1c.03-.02.07-.03.11-.01l1.28.46s.08.06.08.11v.62Z"/><path class="cls-1" d="M10.37,4.67h-2.21c-.07,0-.12-.05-.12-.12v-.68h.24v.56h1.97v-.56h.24v.68c0,.07-.05.12-.12.12Z"/><path class="cls-1" d="M11.9,7.51l-.19-.14.24-.32-.46-.75.2-.12.5.81s.02.09,0,.13l-.29.39Z"/><path class="cls-1" d="M12.15,6.94l-.21-.11.17-.33-.23-.37.2-.13.27.42s.02.08,0,.12l-.2.39Z"/><path class="cls-1" d="M11.1,8.63c-.06,0-.11-.02-.15-.07-.16-.17-.07-.75-.02-1.04-.08-.11-.3-.38-.39-.47-.39-.44-.78-.29-.93-.21-.21.12-.29.28-.28.31.16.44.19.79.07,1.03-.09.19-.24.26-.32.29-.03.01-.06,0-.09,0-.03-.01-.05-.04-.06-.07-.11-.38-.47-.96-.54-1.03-.71-.95-.2-2.76-.18-2.83l.23.07s-.5,1.77.13,2.62c.08.09.38.58.53.97.03-.03.06-.06.08-.11.06-.13.09-.37-.08-.84-.08-.19.11-.44.35-.58.33-.21.84-.25,1.26.23.12.12.43.51.44.53.02.03.03.06.02.1-.07.34-.1.68-.07.83.22-.24.54-.63.62-.76-.08-.17-.37-.59-.55-.84l.19-.14c.05.07.52.73.6.95,0,.02,0,.04,0,.06-.03.16-.63.84-.78.98-.02.02-.04.03-.07.03,0,0-.02,0-.02,0Z"/><path class="cls-1" d="M12.32,6.41l-.23-.04.1-.52c-.98-.42-2.1-.98-2.1-1.28h.24s0-.02,0-.02c.07.17,1.12.71,2.05,1.11.05.02.08.08.07.13l-.12.61Z"/><path class="cls-1" d="M10.09,9.63c-.57,0-1.03-.46-1.03-1.03s.46-1.03,1.03-1.03,1.03.46,1.03,1.03-.46,1.03-1.03,1.03ZM10.09,7.82c-.44,0-.79.35-.79.79s.35.79.79.79.79-.35.79-.79-.35-.79-.79-.79Z"/><path class="cls-1" d="M10.72,12.13h-1.55c-.16,0-.29-.13-.29-.29v-.25c0-.16.13-.29.29-.29h1.55c.16,0,.29.13.29.29v.25c0,.16-.13.29-.29.29ZM9.17,11.53s-.06.03-.06.06v.25s.03.06.06.06h1.55s.06-.03.06-.06v-.25s-.03-.06-.06-.06h-1.55Z"/><path class="cls-1" d="M10.36,11.54h-1.55c-.16,0-.29-.13-.29-.29v-.25c0-.16.13-.29.29-.29h1.55c.16,0,.29.13.29.29v.25c0,.16-.13.29-.29.29ZM8.81,10.94s-.06.03-.06.06v.25s.03.06.06.06h1.55s.06-.03.06-.06v-.25s-.03-.06-.06-.06h-1.55Z"/><path class="cls-1" d="M10.72,10.95h-1.55c-.16,0-.29-.13-.29-.29v-.25c0-.16.13-.29.29-.29h1.55c.16,0,.29.13.29.29v.25c0,.16-.13.29-.29.29ZM9.17,10.35s-.06.03-.06.06v.25s.03.06.06.06h1.55s.06-.03.06-.06v-.25s-.03-.06-.06-.06h-1.55Z"/></svg>