<?xml version="1.0" encoding="UTF-8"?><svg id="_圖層_1" xmlns="http://www.w3.org/2000/svg" viewBox="0 0 16 16"><defs><style>.cls-1{fill:#fff;}</style></defs><path class="cls-1" d="M7.89,11.99h-1.8c-.06,0-.11-.05-.11-.11v-4.94s.02-.07.05-.09c.03-.02.07-.03.1-.01l1.8.67s.07.06.07.11v1.24h-.22v-1.16l-1.57-.59v4.67h1.69v.22Z"/><path class="cls-1" d="M6.09,11.99h-1.01c-.06,0-.11-.05-.11-.11v-2.25s.03-.08.07-.1l1.01-.45s.07-.01.11,0c.03.02.05.06.05.09v2.7c0,.06-.05.11-.11.11ZM5.19,11.76h.79v-2.41l-.79.35v2.06Z"/><path class="cls-1" d="M8.67,11.99h-1.35c-.06,0-.11-.05-.11-.11v-2.81c0-.06.05-.11.11-.11h1.35c.06,0,.11.05.11.11v2.81c0,.06-.05.11-.11.11ZM7.44,11.76h1.12v-2.58h-1.12v2.58Z"/><path class="cls-1" d="M10.02,9.4h-.22v-1.24h-1.24v.9h-.22v-1.01c0-.06.05-.11.11-.11h1.46c.06,0,.11.05.11.11v1.35Z"/><rect class="cls-1" x="8.45" y="11.76" width="1.46" height=".22"/><rect class="cls-1" x="5.53" y="9.97" width=".56" height=".22"/><rect class="cls-1" x="5.53" y="10.64" width=".56" height=".22"/><rect class="cls-1" x="7.78" y="9.63" width=".45" height=".22"/><rect class="cls-1" x="7.78" y="10.19" width=".45" height=".22"/><rect class="cls-1" x="7.78" y="10.75" width=".45" height=".22"/><path class="cls-1" d="M11.03,11.99h-2.36c-.06,0-.11-.05-.11-.11v-2.14c0-.06.05-.11.11-.11h2.36c.06,0,.11.05.11.11v2.14c0,.06-.05.11-.11.11ZM8.79,11.76h2.14v-1.91h-2.14v1.91Z"/><rect class="cls-1" x="9.12" y="10.19" width=".45" height=".22"/><rect class="cls-1" x="9.12" y="10.75" width=".45" height=".22"/><rect class="cls-1" x="10.14" y="10.19" width=".45" height=".22"/><rect class="cls-1" x="10.14" y="10.75" width=".45" height=".22"/><path class="cls-1" d="M8,5.13c-.31,0-.56-.25-.56-.56s.25-.56.56-.56.56.25.56.56-.25.56-.56.56ZM8,4.24c-.19,0-.34.15-.34.34s.15.34.34.34.34-.15.34-.34-.15-.34-.34-.34Z"/><rect class="cls-1" x="7.89" y="5.02" width=".22" height="1.46"/><path class="cls-1" d="M11.6,8.84c-.31,0-.56-.25-.56-.56s.25-.56.56-.56.56.25.56.56-.25.56-.56.56ZM11.6,7.94c-.19,0-.34.15-.34.34s.15.34.34.34.34-.15.34-.34-.15-.34-.34-.34Z"/><rect class="cls-1" x="10.47" y="8.17" width=".67" height=".22"/><path class="cls-1" d="M4.4,8.84c-.31,0-.56-.25-.56-.56s.25-.56.56-.56.56.25.56.56-.25.56-.56.56ZM4.4,7.94c-.19,0-.34.15-.34.34s.15.34.34.34.34-.15.34-.34-.15-.34-.34-.34Z"/><rect class="cls-1" x="4.85" y="8.17" width=".67" height=".22"/><path class="cls-1" d="M4.85,5.7c-.15,0-.29-.06-.4-.16h0c-.11-.11-.16-.25-.16-.4s.06-.29.16-.4c.11-.11.25-.16.4-.16s.29.06.4.16c.11.11.16.25.16.4s-.06.29-.16.4c-.11.11-.25.16-.4.16ZM4.85,4.8c-.09,0-.17.04-.24.1s-.1.15-.1.24.04.17.1.24h0c.13.13.35.13.48,0,.06-.06.1-.15.1-.24s-.04-.17-.1-.24-.15-.1-.24-.1Z"/><rect class="cls-1" x="5.46" y="5.28" width=".22" height="1.14" transform="translate(-2.51 5.66) rotate(-45)"/><path class="cls-1" d="M11.15,5.69c-.15,0-.29-.06-.4-.16-.22-.22-.22-.58,0-.79s.58-.22.79,0,.22.58,0,.79h0c-.11.11-.25.16-.4.16ZM11.15,4.8c-.09,0-.17.04-.24.1-.13.13-.13.35,0,.48.13.13.35.13.48,0h0c.13-.13.13-.35,0-.48-.06-.06-.15-.1-.24-.1Z"/><rect class="cls-1" x="9.85" y="5.74" width="1.14" height=".22" transform="translate(-1.09 9.09) rotate(-45)"/></svg>